<svg width="72" height="72" viewBox="0 0 72 72" fill="none" xmlns="http://www.w3.org/2000/svg">
<path d="M15.35 59.08H13.571C12.887 59.08 12.333 58.502 12.333 57.789V22.959C12.333 22.246 12.887 21.668 13.571 21.668H15.35C16.034 21.668 16.588 22.246 16.588 22.959V57.789C16.588 58.502 16.034 59.08 15.35 59.08ZM58.46 59.08H56.681C55.997 59.08 55.443 58.367 55.443 57.487V24.517C55.443 23.637 55.997 22.924 56.681 22.924H58.46C59.144 22.924 59.698 23.637 59.698 24.517V57.487C59.698 58.367 59.143 59.08 58.46 59.08Z" fill="white"/>
<path d="M7.44995 43.47H15.193L7.44995 51.213V43.47Z" fill="#FCEA2B"/>
<path d="M15.19 43.47H27.53L19.787 51.213L7.44702 51.155L15.19 43.47Z" fill="#3F3F3F"/>
<path d="M27.4801 43.47H39.8201L32.0771 51.213H19.7871L27.4801 43.47Z" fill="#FCEA2B"/>
<path d="M39.8199 43.47H52.1599L44.4169 51.213H32.0769L39.8199 43.47Z" fill="#3F3F3F"/>
<path d="M52.1599 43.4699L64.0499 43.2859L56.1319 51.2369H44.3679L52.1599 43.4699Z" fill="#FCEA2B"/>
<path d="M64.008 43.332V50.944H56.396L64.008 43.332Z" fill="#3F3F3F"/>
<path d="M7.94995 28.3299L15.596 28.2959L7.94995 35.9419V28.3299Z" fill="#FCEA2B"/>
<path d="M15.6001 28.3H27.5401L19.8451 35.946H7.95508L15.6001 28.3Z" fill="#3F3F3F"/>
<path d="M27.4801 28.3H39.8201L32.0771 36.043H19.7871L27.4801 28.3Z" fill="#FCEA2B"/>
<path d="M39.8199 28.3H52.1599L44.4169 36.043H32.0769L39.8199 28.3Z" fill="#3F3F3F"/>
<path d="M52.16 28.3L63.068 28.293L63.053 29.343L56.438 35.946L44.418 36.044L52.16 28.3Z" fill="#FCEA2B"/>
<path d="M64.05 28.3301V35.9421H56.438L64.05 28.3301Z" fill="#3F3F3F"/>
<path d="M12.74 42.7199V36.3719M16.92 50.8999V57.4089C16.92 58.0809 16.375 58.6259 15.703 58.6259H13.955C13.7951 58.6259 13.6369 58.5944 13.4892 58.5333C13.3416 58.4721 13.2074 58.3825 13.0944 58.2695C12.9814 58.1565 12.8918 58.0223 12.8306 57.8746C12.7694 57.727 12.738 57.5687 12.738 57.4089V51.3379M16.92 36.3699V42.7179M12.74 28.2399V22.3329M16.921 22.3329V28.1449M55.0999 43.2899V36.3689M59.2799 51.3399V57.4109C59.2799 58.0829 58.735 58.6279 58.063 58.6279H56.3149C55.9922 58.6279 55.6826 58.4997 55.4544 58.2715C55.2262 58.0432 55.0979 57.7337 55.0979 57.4109V51.3399M59.2799 36.3699V42.3389M55.0999 28.0299V22.1389M59.2809 22.1389V27.9349M7.94995 28.3299H64.05V35.9419H7.94995V28.3299Z" stroke="black" stroke-width="2" stroke-linecap="round" stroke-linejoin="round"/>
<path d="M7.94995 43.29H64.05V50.902H7.94995V43.29Z" stroke="black" stroke-width="2" stroke-linecap="round" stroke-linejoin="round"/>
<path d="M14.8298 22.564C17.367 22.564 19.4238 20.5072 19.4238 17.97C19.4238 15.4328 17.367 13.376 14.8298 13.376C12.2926 13.376 10.2358 15.4328 10.2358 17.97C10.2358 20.5072 12.2926 22.564 14.8298 22.564Z" stroke="black" stroke-width="2" stroke-linecap="round" stroke-linejoin="round"/>
<path d="M57.1899 22.564C59.7271 22.564 61.7839 20.5072 61.7839 17.97C61.7839 15.4328 59.7271 13.376 57.1899 13.376C54.6527 13.376 52.5959 15.4328 52.5959 17.97C52.5959 20.5072 54.6527 22.564 57.1899 22.564Z" stroke="black" stroke-width="2" stroke-linecap="round" stroke-linejoin="round"/>
<path d="M14.835 22.5601C17.3722 22.5601 19.429 20.5033 19.429 17.9661C19.429 15.4289 17.3722 13.3721 14.835 13.3721C12.2978 13.3721 10.241 15.4289 10.241 17.9661C10.241 20.5033 12.2978 22.5601 14.835 22.5601Z" fill="#F4AA41" stroke="#E27022" stroke-width="2" stroke-linecap="round" stroke-linejoin="round"/>
<path d="M57.1851 22.5601C59.7223 22.5601 61.7791 20.5033 61.7791 17.9661C61.7791 15.4289 59.7223 13.3721 57.1851 13.3721C54.6479 13.3721 52.5911 15.4289 52.5911 17.9661C52.5911 20.5033 54.6479 22.5601 57.1851 22.5601Z" fill="#F4AA41" stroke="#E27022" stroke-width="2" stroke-linecap="round" stroke-linejoin="round"/>
</svg>
