<svg width="512" height="47" viewBox="0 0 512 47" fill="none" xmlns="http://www.w3.org/2000/svg">
<path d="M2 28.6822C26.9873 28.6822 48.0864 16.3906 73.4488 16.8055C88.3054 17.0486 88.9118 22.585 99.0898 30.0018C105.831 34.9145 104.669 37.5897 114.071 37.5897C129.263 37.5897 145.366 30.7615 160.167 27.0327C170.984 24.3077 192.815 7.95123 204.246 14.4962C219.892 23.454 215.003 57.7131 240.547 39.2393C255.867 28.1595 268.964 12.6748 286.067 5.0938C302.657 -2.26022 311.555 10.8779 326.113 19.1149C335.177 24.2434 349.636 30.7837 360.253 28.3523C374.851 25.0089 381.71 8.52135 394.681 3.2793C412.279 -3.8332 417.08 20.6053 427.524 30.0018C438.707 40.0634 460.511 34.6245 470.739 25.713C479.291 18.2621 482.389 9.8617 492.202 18.2901C498.727 23.894 502.263 28.6183 510.209 31.6514" stroke="#FFCB53" stroke-width="3" stroke-linecap="round"/>
</svg>
